<?xml version="1.0" encoding="UTF-8" standalone="no"?>
<!-- Created with Inkscape (http://www.inkscape.org/) -->

<svg
   width="210mm"
   height="297mm"
   viewBox="0 0 210 297"
   version="1.1"
   id="svg5"
   xml:space="preserve"
   inkscape:version="1.2.1 (9c6d41e410, 2022-07-14)"
   sodipodi:docname="seal.svg"
   xmlns:inkscape="http://www.inkscape.org/namespaces/inkscape"
   xmlns:sodipodi="http://sodipodi.sourceforge.net/DTD/sodipodi-0.dtd"
   xmlns="http://www.w3.org/2000/svg"
   xmlns:svg="http://www.w3.org/2000/svg"><sodipodi:namedview
     id="namedview7"
     pagecolor="#ffffff"
     bordercolor="#666666"
     borderopacity="1.0"
     inkscape:showpageshadow="2"
     inkscape:pageopacity="0.0"
     inkscape:pagecheckerboard="0"
     inkscape:deskcolor="#d1d1d1"
     inkscape:document-units="mm"
     showgrid="false"
     inkscape:zoom="1.0985947"
     inkscape:cx="47.788323"
     inkscape:cy="292.19146"
     inkscape:window-width="1920"
     inkscape:window-height="1027"
     inkscape:window-x="-8"
     inkscape:window-y="-8"
     inkscape:window-maximized="1"
     inkscape:current-layer="layer1" /><defs
     id="defs2" /><g
     inkscape:label="Layer 1"
     inkscape:groupmode="layer"
     id="layer1"><path
       style="fill:#766a5e;fill-opacity:1;stroke:#000000;stroke-width:0.865;stroke-linecap:butt;stroke-linejoin:miter;stroke-dasharray:none;stroke-opacity:1"
       d="m 29.51807,16.647112 c 2.724772,4.5129 4.172307,5.53469 4.427755,6.301031 0.255447,0.766342 1.106937,2.213878 0.340595,2.724772 -0.766342,0.510895 -2.895068,0.425744 -5.108945,-2.043578 -2.213878,-2.469325 -4.087157,-6.982225 -4.087157,-6.982225"
       id="path14143"
       sodipodi:nodetypes="csssc"
       inkscape:export-filename="seal_reversed.png"
       inkscape:export-xdpi="30.48"
       inkscape:export-ydpi="30.48" /><path
       style="fill:#766a5e;fill-opacity:1;stroke:#000000;stroke-width:0.865;stroke-linecap:butt;stroke-linejoin:miter;stroke-dasharray:none;stroke-opacity:1"
       d="m 49.357806,13.155999 c -2.469322,0 -9.196099,-2.639621 -11.324828,-3.4059626 -2.128726,-0.766342 -9.962441,-2.299025 -14.815939,-2.80992 -4.853498,-0.510894 -7.620843,-0.08515 -9.28125,-1.362384 -1.660407,-1.277236 -2.299026,-2.80992 -4.3426041,-3.491113 -2.043578,-0.681193 -3.576262,0.08515 -5.194094,0.255447 -1.617833,0.170298 -2.724771,-0.425745 -3.065367,0 -0.34059595,0.425746 0.425745,2.043578 1.532683,3.235665 1.106939,1.192088 4.257455,2.043578 5.279244,3.065367 1.021789,1.021789 10.7287841,9.3663996 17.7110091,10.4733376 6.982225,1.106938 12.772362,0.340596 16.518922,-0.851491 3.746559,-1.192087 6.47133,-2.384174 7.40797,-2.554472 0.93664,-0.170299 5.619839,1.106937 7.152523,1.362384 1.532683,0.255448 5.790133,-0.681192 3.74656,-1.873279 -2.043578,-1.192087 -2.80992,-1.788131 -2.80992,-1.788131 0,0 2.213876,-0.425745 2.980218,-1.617833 0.766341,-1.192087 -4.002007,-0.170298 -5.194094,0.08515 -1.192087,0.255447 -4.342605,1.362383 -6.301033,1.277235 z"
       id="path13858"
       sodipodi:nodetypes="csszsssssssssscssc" /><ellipse
       style="fill:#000000;fill-opacity:1;stroke-width:1.32292;stroke-linecap:round;stroke-linejoin:round"
       id="path13961"
       cx="-2.1000628"
       cy="3.0232601"
       rx="0.9366399"
       ry="0.85149086"
       transform="scale(-1,1)" /><ellipse
       style="fill:#000000;fill-opacity:1;stroke-width:0.721593;stroke-linecap:round;stroke-linejoin:round"
       id="path13961-1"
       cx="-7.805057"
       cy="3.108408"
       rx="0.51089448"
       ry="0.46444955"
       transform="scale(-1,1)" /><path
       style="fill:#766a5e;fill-opacity:1;stroke:#000000;stroke-width:0.865;stroke-linecap:butt;stroke-linejoin:miter;stroke-dasharray:none;stroke-opacity:1"
       d="m 25.260617,13.837193 c -0.170299,3.746558 1.70298,5.44954 2.384174,8.429757 0.681194,2.980219 0.936641,4.427754 -0.85149,3.91686 -1.788131,-0.510895 -4.427752,-3.065368 -5.279244,-4.76835 -0.85149,-1.70298 -0.596043,-7.493119 -0.596043,-7.493119"
       id="path14141" /></g></svg>
